<?xml version="1.0"?>
<!DOCTYPE svg PUBLIC "-//W3C//DTD SVG 1.0//EN" "http://www.w3.org/TR/2001/REC-SVG-20010904/DTD/svg10.dtd">
<svg xmlns="http://www.w3.org/2000/svg" xmlns:xlink="http://www.w3.org/1999/xlink" fill-opacity="1" color-rendering="auto" color-interpolation="auto" stroke="black" text-rendering="auto" stroke-linecap="square" stroke-miterlimit="10" stroke-opacity="1" shape-rendering="auto" fill="black" stroke-dasharray="none" font-weight="normal" stroke-width="1" font-family="'Dialog'" font-style="normal" stroke-linejoin="miter" font-size="12" stroke-dashoffset="0" image-rendering="auto" width="638.1347045898438" height="561.2177734375" viewBox="0.0 0.0 638.1347045898438 561.2177734375"><!--Gegenereerd door de Verkeersbordendatabank van de Vlaamse overheid, Mobiliteit en Openbare Werken.--><defs id="genericDefs" /><g><g fill="rgb(199,23,18)" transform="matrix(1,0,0,-1,0,561.2178)" stroke="rgb(199,23,18)"><path d="M278.0866 538.7178 L6.0289 67.5 C-2.0096 53.577 -2.0096 36.423 6.0289 22.5 C14.0673 8.577 28.923 0 45 0 L589.1154 0 C605.1924 0 620.0481 8.577 628.0865 22.5 C636.1251 36.423 636.1251 53.577 628.0865 67.5 L356.0289 538.7178 C347.9904 552.6408 333.1347 561.2178 317.0577 561.2178 C300.9808 561.2178 286.1251 552.6408 278.0866 538.7178 Z" stroke="none" /></g><g fill="rgb(252,255,255)" transform="matrix(1,0,0,-1,0,561.2178)" stroke="rgb(252,255,255)"><path d="M545.8141 70 L317.0577 466.2178 L88.3013 70 L545.8141 70 Z" stroke="none" /><path fill="rgb(20,23,28)" d="M417.766 132.0542 C417.766 202.3315 370.5635 263.847 302.6808 282.0361 L272.6844 290.0736 L251.6746 271.6565 L260.6611 245.202 L290.6575 237.1644 C338.231 224.4172 371.3115 181.3059 371.3115 132.0542 L371.3115 100.9996 L394.5387 116.5269 L417.766 100.9996 L417.766 132.0542 Z" stroke="none" /></g></g></svg>
